{
  "asset": {
    "generator": "glTF-Transform v3.10.1",
    "version": "2.0"
  },
  "accessors": [
    {
      "type": "VEC3",
      "componentType": 5126,
      "count": 4,
      "max": [
        2.9542529582977295,
        0.05927114188671112,
        1.4155222177505493
      ],
      "min": [
        -2.9542529582977295,
        0.0592702180147171,
        -1.4155222177505493
      ],
      "bufferView": 0,
      "byteOffset": 0
    },
    {
      "type": "VEC2",
      "componentType": 5126,
      "count": 4,
      "bufferView": 0,
      "byteOffset": 12
    },
    {
      "type": "VEC3",
      "componentType": 5126,
      "count": 4,
      "bufferView": 0,
      "byteOffset": 20
    },
    {
      "type": "VEC3",
      "componentType": 5126,
      "count": 8,
      "max": [
        127.80513000488281,
        0,
        15.004532814025879
      ],
      "min": [
        -104.07454681396484,
        0,
        -15.004525184631348
      ],
      "bufferView": 1,
      "byteOffset": 0
    },
    {
      "type": "VEC2",
      "componentType": 5126,
      "count": 8,
      "bufferView": 1,
      "byteOffset": 12
    },
    {
      "type": "VEC2",
      "componentType": 5126,
      "count": 8,
      "bufferView": 1,
      "byteOffset": 20
    },
    {
      "type": "VEC3",
      "componentType": 5126,
      "count": 8,
      "bufferView": 1,
      "byteOffset": 28
    },
    {
      "type": "SCALAR",
      "componentType": 5123,
      "count": 6,
      "bufferView": 2,
      "byteOffset": 0
    },
    {
      "type": "SCALAR",
      "componentType": 5123,
      "count": 18,
      "bufferView": 2,
      "byteOffset": 12
    }
  ],
  "bufferViews": [
    {
      "buffer": 0,
      "byteOffset": 0,
      "byteLength": 128,
      "byteStride": 32,
      "target": 34962
    },
    {
      "buffer": 0,
      "byteOffset": 128,
      "byteLength": 320,
      "byteStride": 40,
      "target": 34962
    },
    {
      "buffer": 0,
      "byteOffset": 448,
      "byteLength": 48,
      "target": 34963
    }
  ],
  "buffers": [
    {
      "uri": "sm_startroom.raw_data.bin",
      "byteLength": 496
    }
  ],
  "materials": [
    {
      "name": "light",
      "doubleSided": true,
      "pbrMetallicRoughness": {}
    },
    {
      "name": "floor",
      "doubleSided": true,
      "pbrMetallicRoughness": {
        "roughnessFactor": 0.14507770538330078,
        "metallicFactor": 0.41709843277931213
      },
      "extensions": {
        "KHR_materials_ior": {
          "ior": 1.4500000476837158
        },
        "KHR_materials_specular": {
          "specularColorFactor": [
            0,
            0,
            0
          ]
        }
      }
    }
  ],
  "meshes": [
    {
      "name": "Plane.023",
      "primitives": [
        {
          "attributes": {
            "POSITION": 0,
            "TEXCOORD_0": 1,
            "NORMAL": 2
          },
          "mode": 4,
          "material": 0,
          "indices": 7
        }
      ]
    },
    {
      "name": "Plane.020",
      "primitives": [
        {
          "attributes": {
            "POSITION": 3,
            "TEXCOORD_0": 4,
            "TEXCOORD_1": 5,
            "NORMAL": 6
          },
          "mode": 4,
          "material": 1,
          "indices": 8
        }
      ]
    }
  ],
  "nodes": [
    {
      "name": "light.001",
      "translation": [
        0,
        2.87214994430542,
        0
      ],
      "rotation": [
        0,
        -1,
        0,
        1.6292068494294654e-7
      ],
      "mesh": 0
    },
    {
      "name": "ReflecFloor",
      "translation": [
        11.865281105041504,
        0.006904084701091051,
        0
      ],
      "rotation": [
        0,
        -1,
        0,
        2.821299744937278e-7
      ],
      "mesh": 1
    }
  ],
  "scenes": [
    {
      "name": "Scene",
      "nodes": [
        0,
        1
      ]
    }
  ],
  "scene": 0,
  "extensionsUsed": [
    "KHR_materials_ior",
    "KHR_materials_specular"
  ]
}