{
	"asset":{
		"generator":"Khronos glTF Blender I/O v4.1.63",
		"version":"2.0"
	},
	"extensionsUsed":[
		"KHR_texture_transform"
	],
	"extensionsRequired":[
		"KHR_texture_transform"
	],
	"scene":0,
	"scenes":[
		{
			"name":"Scene",
			"nodes":[
				0,
				1,
				2,
				3,
				4,
				5,
				6,
				7,
				8
			]
		}
	],
	"nodes":[
		{
			"mesh":0,
			"name":"body",
			"scale":[
				0.6451356410980225,
				0.6451356410980225,
				0.6451356410980225
			],
			"translation":[
				-2.4421377182006836,
				0.8877718448638916,
				0
			]
		},
		{
			"mesh":1,
			"name":"body.001",
			"scale":[
				2.6118338108062744,
				2.6118338108062744,
				2.6118338108062744
			],
			"translation":[
				0.009937763214111328,
				0.841904878616333,
				0
			]
		},
		{
			"mesh":2,
			"name":"ChePai",
			"scale":[
				2.605447292327881,
				2.605447292327881,
				2.605447292327881
			],
			"translation":[
				0.021634221076965332,
				0.5242015719413757,
				-0.0004073232412338257
			]
		},
		{
			"mesh":3,
			"name":"DiPan",
			"scale":[
				2.5821280479431152,
				2.5821280479431152,
				2.5821280479431152
			],
			"translation":[
				-0.005307316780090332,
				0.7710592746734619,
				0
			]
		},
		{
			"mesh":4,
			"name":"Glass",
			"scale":[
				1.6522096395492554,
				1.6522096395492554,
				1.6522096395492554
			],
			"translation":[
				-0.43772709369659424,
				1.16619074344635,
				0
			]
		},
		{
			"mesh":5,
			"name":"Light.001",
			"scale":[
				0.871658205986023,
				0.871658205986023,
				0.871658205986023
			],
			"translation":[
				2.2596096992492676,
				0.7080363035202026,
				0
			]
		},
		{
			"mesh":6,
			"name":"Logo.001",
			"scale":[
				0.034011125564575195,
				0.034011125564575195,
				0.034011125564575195
			],
			"translation":[
				2.3718507289886475,
				0.7642413377761841,
				0.00026293564587831497
			]
		},
		{
			"mesh":7,
			"name":"ShaChe",
			"rotation":[
				0,
				0,
				-0.08580723404884338,
				0.9963117837905884
			],
			"scale":[
				1.7029815912246704,
				1.7029815912246704,
				1.7029814720153809
			],
			"translation":[
				0.04210611805319786,
				0.3714781105518341,
				0
			]
		},
		{
			"mesh":8,
			"name":"Wheel.001",
			"scale":[
				0.9795963764190674,
				0.9795963764190674,
				0.9795963764190674
			],
			"translation":[
				1.568846583366394,
				0.3643694221973419,
				0
			]
		}
	],
	"materials":[
		{
			"name":"Car_body",
			"occlusionTexture":{
				"extensions":{
					"KHR_texture_transform":{
						"scale":[
							1,
							-1
						]
					}
				},
				"index":0
			},
			"pbrMetallicRoughness":{
				"baseColorFactor":[
					0.01938132382929325,
					0.6724427938461304,
					0.8148464560508728,
					1
				],
				"metallicFactor":0,
				"roughnessFactor":0.009999999776482582
			}
		},
		{
			"doubleSided":true,
			"name":"M_body_smoothblack",
			"pbrMetallicRoughness":{
				"baseColorFactor":[
					0,
					0,
					0,
					1
				],
				"metallicFactor":0.5437960028648376,
				"roughnessFactor":0
			}
		},
		{
			"doubleSided":true,
			"name":"M_ChePai.004",
			"pbrMetallicRoughness":{
				"baseColorTexture":{
					"index":1
				},
				"metallicFactor":0,
				"metallicRoughnessTexture":{
					"index":2
				}
			}
		},
		{
			"name":"M_body_frostedblack",
			"pbrMetallicRoughness":{
				"baseColorFactor":[
					0.019999999552965164,
					0.019999999552965164,
					0.019999999552965164,
					1
				],
				"metallicFactor":0.20000000298023224,
				"roughnessFactor":0.4000000059604645
			}
		},
		{
			"alphaMode":"BLEND",
			"doubleSided":true,
			"name":"Car_window",
			"pbrMetallicRoughness":{
				"baseColorFactor":[
					0.11697071045637131,
					0.11697071045637131,
					0.11697071045637131,
					0.25
				],
				"roughnessFactor":0
			}
		},
		{
			"emissiveFactor":[
				1,
				1,
				1
			],
			"emissiveTexture":{
				"index":3
			},
			"name":"Car_ight",
			"pbrMetallicRoughness":{
				"baseColorTexture":{
					"index":4
				},
				"metallicFactor":0,
				"roughnessFactor":0.05693430081009865
			}
		},
		{
			"name":"M_iron",
			"pbrMetallicRoughness":{
				"roughnessFactor":0.048413001000881195
			}
		},
		{
			"doubleSided":true,
			"name":"M_logo",
			"pbrMetallicRoughness":{
				"baseColorTexture":{
					"index":5
				},
				"metallicRoughnessTexture":{
					"index":6
				},
				"roughnessFactor":0.048413001000881195
			}
		},
		{
			"name":"M_wheel",
			"normalTexture":{
				"index":7
			},
			"pbrMetallicRoughness":{
				"baseColorTexture":{
					"index":8
				},
				"metallicRoughnessTexture":{
					"index":9
				}
			}
		}
	],
	"meshes":[
		{
			"name":"Object_37.006",
			"primitives":[
				{
					"attributes":{
						"POSITION":0,
						"NORMAL":1,
						"TEXCOORD_0":2
					},
					"indices":3,
					"material":0
				}
			]
		},
		{
			"name":"Object_37.009",
			"primitives":[
				{
					"attributes":{
						"POSITION":4,
						"NORMAL":5
					},
					"indices":6,
					"material":1
				}
			]
		},
		{
			"name":"Object_5.002",
			"primitives":[
				{
					"attributes":{
						"POSITION":7,
						"NORMAL":8,
						"TEXCOORD_0":9
					},
					"indices":10,
					"material":2
				}
			]
		},
		{
			"name":"Object_9.002",
			"primitives":[
				{
					"attributes":{
						"POSITION":11,
						"NORMAL":12
					},
					"indices":13,
					"material":3
				}
			]
		},
		{
			"name":"Object_24.002",
			"primitives":[
				{
					"attributes":{
						"POSITION":14,
						"NORMAL":15
					},
					"indices":16,
					"material":4
				}
			]
		},
		{
			"name":"Object_14.003",
			"primitives":[
				{
					"attributes":{
						"POSITION":17,
						"NORMAL":18,
						"TEXCOORD_0":19
					},
					"indices":20,
					"material":5
				},
				{
					"attributes":{
						"POSITION":21,
						"NORMAL":22,
						"TEXCOORD_0":23
					},
					"indices":24,
					"material":6
				}
			]
		},
		{
			"name":"Object_6.002",
			"primitives":[
				{
					"attributes":{
						"POSITION":25,
						"NORMAL":26,
						"TEXCOORD_0":27
					},
					"indices":28,
					"material":7
				}
			]
		},
		{
			"name":"Object_40.013",
			"primitives":[
				{
					"attributes":{
						"POSITION":29,
						"NORMAL":30,
						"TEXCOORD_0":31
					},
					"indices":32,
					"material":8
				}
			]
		},
		{
			"name":"Object_40.015",
			"primitives":[
				{
					"attributes":{
						"POSITION":33,
						"NORMAL":34,
						"TEXCOORD_0":35
					},
					"indices":36,
					"material":8
				}
			]
		}
	],
	"textures":[
		{
			"sampler":0,
			"source":0
		},
		{
			"sampler":1,
			"source":1
		},
		{
			"sampler":1,
			"source":2
		},
		{
			"sampler":0,
			"source":3
		},
		{
			"sampler":0,
			"source":3
		},
		{
			"sampler":0,
			"source":4
		},
		{
			"sampler":0,
			"source":5
		},
		{
			"sampler":0,
			"source":6
		},
		{
			"sampler":0,
			"source":7
		},
		{
			"sampler":0,
			"source":8
		}
	],
	"images":[
		{
			"mimeType":"image/jpeg",
			"name":"Image_3",
			"uri":"Image_3.jpg"
		},
		{
			"mimeType":"image/jpeg",
			"name":"t_chepai",
			"uri":"t_chepai.jpg"
		},
		{
			"mimeType":"image/jpeg",
			"name":"t_chepai",
			"uri":"t_chepai-1.jpg"
		},
		{
			"mimeType":"image/jpeg",
			"name":"t_emissive_color",
			"uri":"t_emissive_color.jpg"
		},
		{
			"mimeType":"image/jpeg",
			"name":"t_milogo",
			"uri":"t_milogo.jpg"
		},
		{
			"mimeType":"image/jpeg",
			"name":"t_milogo",
			"uri":"t_milogo-1.jpg"
		},
		{
			"mimeType":"image/jpeg",
			"name":"Image_7",
			"uri":"Image_7.jpg"
		},
		{
			"mimeType":"image/jpeg",
			"name":"t_wheel_c",
			"uri":"t_wheel_c.jpg"
		},
		{
			"mimeType":"image/jpeg",
			"name":"t_wheel_rm",
			"uri":"t_wheel_rm.jpg"
		}
	],
	"accessors":[
		{
			"bufferView":0,
			"componentType":5126,
			"count":6384,
			"max":[
				7.849371910095215,
				0.8516631722450256,
				1.7053110599517822
			],
			"min":[
				-0.24763506650924683,
				-0.9937999844551086,
				-1.705385446548462
			],
			"type":"VEC3"
		},
		{
			"bufferView":1,
			"componentType":5126,
			"count":6384,
			"type":"VEC3"
		},
		{
			"bufferView":2,
			"componentType":5126,
			"count":6384,
			"type":"VEC2"
		},
		{
			"bufferView":3,
			"componentType":5123,
			"count":28881,
			"type":"SCALAR"
		},
		{
			"bufferView":4,
			"componentType":5126,
			"count":11129,
			"max":[
				1.003273606300354,
				0.2399190068244934,
				0.4211246371269226
			],
			"min":[
				-1.0016535520553589,
				-0.2510635554790497,
				-0.4210842251777649
			],
			"type":"VEC3"
		},
		{
			"bufferView":5,
			"componentType":5126,
			"count":11129,
			"type":"VEC3"
		},
		{
			"bufferView":6,
			"componentType":5123,
			"count":38466,
			"type":"SCALAR"
		},
		{
			"bufferView":7,
			"componentType":5126,
			"count":26,
			"max":[
				1,
				0.033694490790367126,
				0.08240500092506409
			],
			"min":[
				-1,
				-0.033692434430122375,
				-0.08239997923374176
			],
			"type":"VEC3"
		},
		{
			"bufferView":8,
			"componentType":5126,
			"count":26,
			"type":"VEC3"
		},
		{
			"bufferView":9,
			"componentType":5126,
			"count":26,
			"type":"VEC2"
		},
		{
			"bufferView":10,
			"componentType":5123,
			"count":66,
			"type":"SCALAR"
		},
		{
			"bufferView":11,
			"componentType":5126,
			"count":50992,
			"max":[
				1,
				0.2540509104728699,
				0.3787883520126343
			],
			"min":[
				-1,
				-0.23291726410388947,
				-0.3788262605667114
			],
			"type":"VEC3"
		},
		{
			"bufferView":12,
			"componentType":5126,
			"count":50992,
			"type":"VEC3"
		},
		{
			"bufferView":13,
			"componentType":5123,
			"count":172512,
			"type":"SCALAR"
		},
		{
			"bufferView":14,
			"componentType":5126,
			"count":1295,
			"max":[
				1.7916640043258667,
				0.1270991563796997,
				0.5339959263801575
			],
			"min":[
				-1.2608894109725952,
				-0.33889830112457275,
				-0.5340158343315125
			],
			"type":"VEC3"
		},
		{
			"bufferView":15,
			"componentType":5126,
			"count":1295,
			"type":"VEC3"
		},
		{
			"bufferView":16,
			"componentType":5123,
			"count":5631,
			"type":"SCALAR"
		},
		{
			"bufferView":17,
			"componentType":5126,
			"count":2065,
			"max":[
				0.301572322845459,
				0.27533355355262756,
				1.0120912790298462
			],
			"min":[
				-5.491304874420166,
				-0.3409751355648041,
				-1.0122157335281372
			],
			"type":"VEC3"
		},
		{
			"bufferView":18,
			"componentType":5126,
			"count":2065,
			"type":"VEC3"
		},
		{
			"bufferView":19,
			"componentType":5126,
			"count":2065,
			"type":"VEC2"
		},
		{
			"bufferView":20,
			"componentType":5123,
			"count":6564,
			"type":"SCALAR"
		},
		{
			"bufferView":21,
			"componentType":5126,
			"count":4385,
			"max":[
				0.29740285873413086,
				0.2937518358230591,
				0.9984124302864075
			],
			"min":[
				-5.480412483215332,
				-0.09912411868572235,
				-0.9984130263328552
			],
			"type":"VEC3"
		},
		{
			"bufferView":22,
			"componentType":5126,
			"count":4385,
			"type":"VEC3"
		},
		{
			"bufferView":23,
			"componentType":5126,
			"count":4385,
			"type":"VEC2"
		},
		{
			"bufferView":24,
			"componentType":5123,
			"count":13005,
			"type":"SCALAR"
		},
		{
			"bufferView":25,
			"componentType":5126,
			"count":204,
			"max":[
				1,
				0.6307340264320374,
				0.9186937808990479
			],
			"min":[
				-1,
				-0.6306955218315125,
				-0.9186986684799194
			],
			"type":"VEC3"
		},
		{
			"bufferView":26,
			"componentType":5126,
			"count":204,
			"type":"VEC3"
		},
		{
			"bufferView":27,
			"componentType":5126,
			"count":204,
			"type":"VEC2"
		},
		{
			"bufferView":28,
			"componentType":5123,
			"count":1038,
			"type":"SCALAR"
		},
		{
			"bufferView":29,
			"componentType":5126,
			"count":5120,
			"max":[
				1,
				0.2689150273799896,
				0.5202503204345703
			],
			"min":[
				-1,
				-0.2689596116542816,
				-0.5202184915542603
			],
			"type":"VEC3"
		},
		{
			"bufferView":30,
			"componentType":5126,
			"count":5120,
			"type":"VEC3"
		},
		{
			"bufferView":31,
			"componentType":5126,
			"count":5120,
			"type":"VEC2"
		},
		{
			"bufferView":32,
			"componentType":5123,
			"count":21123,
			"type":"SCALAR"
		},
		{
			"bufferView":33,
			"componentType":5126,
			"count":13864,
			"max":[
				0.3751640319824219,
				0.37533098459243774,
				0.9999040365219116
			],
			"min":[
				-3.4913012981414795,
				-0.3751640319824219,
				-1
			],
			"type":"VEC3"
		},
		{
			"bufferView":34,
			"componentType":5126,
			"count":13864,
			"type":"VEC3"
		},
		{
			"bufferView":35,
			"componentType":5126,
			"count":13864,
			"type":"VEC2"
		},
		{
			"bufferView":36,
			"componentType":5123,
			"count":43929,
			"type":"SCALAR"
		}
	],
	"bufferViews":[
		{
			"buffer":0,
			"byteLength":76608,
			"byteOffset":0,
			"target":34962
		},
		{
			"buffer":0,
			"byteLength":76608,
			"byteOffset":76608,
			"target":34962
		},
		{
			"buffer":0,
			"byteLength":51072,
			"byteOffset":153216,
			"target":34962
		},
		{
			"buffer":0,
			"byteLength":57762,
			"byteOffset":204288,
			"target":34963
		},
		{
			"buffer":0,
			"byteLength":133548,
			"byteOffset":262052,
			"target":34962
		},
		{
			"buffer":0,
			"byteLength":133548,
			"byteOffset":395600,
			"target":34962
		},
		{
			"buffer":0,
			"byteLength":76932,
			"byteOffset":529148,
			"target":34963
		},
		{
			"buffer":0,
			"byteLength":312,
			"byteOffset":606080,
			"target":34962
		},
		{
			"buffer":0,
			"byteLength":312,
			"byteOffset":606392,
			"target":34962
		},
		{
			"buffer":0,
			"byteLength":208,
			"byteOffset":606704,
			"target":34962
		},
		{
			"buffer":0,
			"byteLength":132,
			"byteOffset":606912,
			"target":34963
		},
		{
			"buffer":0,
			"byteLength":611904,
			"byteOffset":607044,
			"target":34962
		},
		{
			"buffer":0,
			"byteLength":611904,
			"byteOffset":1218948,
			"target":34962
		},
		{
			"buffer":0,
			"byteLength":345024,
			"byteOffset":1830852,
			"target":34963
		},
		{
			"buffer":0,
			"byteLength":15540,
			"byteOffset":2175876,
			"target":34962
		},
		{
			"buffer":0,
			"byteLength":15540,
			"byteOffset":2191416,
			"target":34962
		},
		{
			"buffer":0,
			"byteLength":11262,
			"byteOffset":2206956,
			"target":34963
		},
		{
			"buffer":0,
			"byteLength":24780,
			"byteOffset":2218220,
			"target":34962
		},
		{
			"buffer":0,
			"byteLength":24780,
			"byteOffset":2243000,
			"target":34962
		},
		{
			"buffer":0,
			"byteLength":16520,
			"byteOffset":2267780,
			"target":34962
		},
		{
			"buffer":0,
			"byteLength":13128,
			"byteOffset":2284300,
			"target":34963
		},
		{
			"buffer":0,
			"byteLength":52620,
			"byteOffset":2297428,
			"target":34962
		},
		{
			"buffer":0,
			"byteLength":52620,
			"byteOffset":2350048,
			"target":34962
		},
		{
			"buffer":0,
			"byteLength":35080,
			"byteOffset":2402668,
			"target":34962
		},
		{
			"buffer":0,
			"byteLength":26010,
			"byteOffset":2437748,
			"target":34963
		},
		{
			"buffer":0,
			"byteLength":2448,
			"byteOffset":2463760,
			"target":34962
		},
		{
			"buffer":0,
			"byteLength":2448,
			"byteOffset":2466208,
			"target":34962
		},
		{
			"buffer":0,
			"byteLength":1632,
			"byteOffset":2468656,
			"target":34962
		},
		{
			"buffer":0,
			"byteLength":2076,
			"byteOffset":2470288,
			"target":34963
		},
		{
			"buffer":0,
			"byteLength":61440,
			"byteOffset":2472364,
			"target":34962
		},
		{
			"buffer":0,
			"byteLength":61440,
			"byteOffset":2533804,
			"target":34962
		},
		{
			"buffer":0,
			"byteLength":40960,
			"byteOffset":2595244,
			"target":34962
		},
		{
			"buffer":0,
			"byteLength":42246,
			"byteOffset":2636204,
			"target":34963
		},
		{
			"buffer":0,
			"byteLength":166368,
			"byteOffset":2678452,
			"target":34962
		},
		{
			"buffer":0,
			"byteLength":166368,
			"byteOffset":2844820,
			"target":34962
		},
		{
			"buffer":0,
			"byteLength":110912,
			"byteOffset":3011188,
			"target":34962
		},
		{
			"buffer":0,
			"byteLength":87858,
			"byteOffset":3122100,
			"target":34963
		}
	],
	"samplers":[
		{
			"magFilter":9729,
			"minFilter":9987
		},
		{
			"magFilter":9729,
			"minFilter":9987,
			"wrapS":33071,
			"wrapT":33071
		}
	],
	"buffers":[
		{
			"byteLength":3209960,
			"uri":"sm_car.bin"
		}
	]
}
